<svg xmlns="http://www.w3.org/2000/svg" xmlns:xlink="http://www.w3.org/1999/xlink" width="100" zoomAndPan="magnify" viewBox="0 0 75 74.999997" height="100" preserveAspectRatio="xMidYMid meet" version="1.0"><defs><g/><clipPath id="16eddf902a"><path d="M 38 15.796875 L 58.777344 15.796875 L 58.777344 27.613281 L 38 27.613281 Z M 38 15.796875 " clip-rule="nonzero"/></clipPath><clipPath id="25bc9b4cc0"><path d="M 48.375 15.796875 L 38 26.164062 C 38 26.164062 40.769531 27.519531 41.496094 27.519531 C 43.109375 27.519531 45.5 26.851562 46.40625 26.742188 C 46.886719 26.683594 47.585938 26.570312 48.375 26.539062 C 49.160156 26.570312 49.859375 26.683594 50.339844 26.742188 C 51.246094 26.851562 53.636719 27.519531 55.25 27.519531 C 55.976562 27.519531 58.746094 26.164062 58.746094 26.164062 Z M 48.375 15.796875 " clip-rule="nonzero"/></clipPath><clipPath id="50c6f095fb"><path d="M 33.527344 25.515625 L 63.257812 25.515625 L 63.257812 45.433594 L 33.527344 45.433594 Z M 33.527344 25.515625 " clip-rule="nonzero"/></clipPath><clipPath id="2df9e7b097"><path d="M 61.292969 28.59375 L 63.160156 25.5625 L 60.367188 27.667969 L 56.492188 30.53125 C 56.375 30.613281 56.25 30.683594 56.117188 30.734375 L 52.367188 32.195312 L 53.816406 32.105469 L 53.003906 35.496094 L 50.265625 38.195312 L 51.550781 37.757812 L 51.171875 39.699219 L 48.691406 41.621094 C 48.597656 41.691406 48.484375 41.730469 48.375 41.730469 C 48.261719 41.730469 48.148438 41.691406 48.054688 41.621094 L 45.574219 39.699219 L 45.191406 37.761719 L 46.480469 38.195312 L 43.742188 35.496094 L 42.925781 32.105469 L 44.375 32.195312 L 40.625 30.734375 C 40.492188 30.683594 40.367188 30.613281 40.253906 30.527344 L 36.378906 27.667969 L 33.582031 25.5625 L 35.453125 28.597656 L 33.527344 30.523438 L 48.375 45.367188 L 63.21875 30.523438 Z M 61.292969 28.59375 " clip-rule="nonzero"/></clipPath><clipPath id="634fc1203b"><path d="M 49.628906 41.335938 L 53.726562 41.335938 L 53.726562 45.621094 L 49.628906 45.621094 Z M 49.628906 41.335938 " clip-rule="nonzero"/></clipPath><clipPath id="37d2705c1d"><path d="M 53.695312 41.425781 L 49.667969 45.578125 L 52.316406 45.578125 L 53.695312 44.171875 Z M 53.695312 41.425781 " clip-rule="nonzero"/></clipPath></defs><g fill="#104665" fill-opacity="1"><g transform="translate(5.310501, 56.756618)"><g><path d="M 12.453125 -10.0625 L 12.453125 0 L 9.1875 0 L 9.1875 -7.78125 L 6.71875 0 L 4.953125 0 L 2.484375 -7.78125 L 2.484375 0 L 0.765625 0 L 0.765625 -10.0625 L 4.96875 -10.0625 L 6.625 -4.453125 L 8.265625 -10.0625 Z M 12.453125 -10.0625 "/></g></g></g><g fill="#104665" fill-opacity="1"><g transform="translate(18.524657, 56.756618)"><g><path d="M 5.34375 -0.6875 C 5.1875 -0.332031 4.921875 -0.078125 4.546875 0.078125 C 4.179688 0.242188 3.773438 0.328125 3.328125 0.328125 C 2.453125 0.328125 1.71875 0.132812 1.125 -0.25 C 0.539062 -0.644531 0.25 -1.21875 0.25 -1.96875 C 0.25 -2.9375 0.707031 -3.585938 1.625 -3.921875 C 2.550781 -4.265625 3.726562 -4.4375 5.15625 -4.4375 L 5.15625 -5.765625 C 5.15625 -6.210938 5.09375 -6.5625 4.96875 -6.8125 C 4.851562 -7.070312 4.628906 -7.203125 4.296875 -7.203125 C 3.578125 -7.203125 3.21875 -6.738281 3.21875 -5.8125 C 3.21875 -5.632812 3.238281 -5.382812 3.28125 -5.0625 C 3.207031 -5.007812 3.082031 -4.972656 2.90625 -4.953125 C 2.738281 -4.929688 2.585938 -4.921875 2.453125 -4.921875 C 1.960938 -4.921875 1.554688 -5.023438 1.234375 -5.234375 C 0.910156 -5.441406 0.75 -5.757812 0.75 -6.1875 C 0.75 -6.851562 1.125 -7.332031 1.875 -7.625 C 2.625 -7.925781 3.46875 -8.078125 4.40625 -8.078125 C 5.613281 -8.078125 6.535156 -7.863281 7.171875 -7.4375 C 7.816406 -7.007812 8.140625 -6.265625 8.140625 -5.203125 L 8.140625 -1.78125 C 8.140625 -1.125 8.296875 -0.59375 8.609375 -0.1875 C 8.453125 -0.0507812 8.238281 0.0507812 7.96875 0.125 C 7.707031 0.195312 7.453125 0.234375 7.203125 0.234375 C 6.265625 0.234375 5.644531 -0.0703125 5.34375 -0.6875 Z M 4.171875 -0.75 C 4.515625 -0.75 4.765625 -0.898438 4.921875 -1.203125 C 5.078125 -1.503906 5.15625 -1.878906 5.15625 -2.328125 L 5.15625 -3.671875 C 4.507812 -3.671875 4.023438 -3.539062 3.703125 -3.28125 C 3.378906 -3.03125 3.21875 -2.613281 3.21875 -2.03125 C 3.21875 -1.65625 3.296875 -1.347656 3.453125 -1.109375 C 3.609375 -0.867188 3.847656 -0.75 4.171875 -0.75 Z M 4.171875 -0.75 "/></g></g></g><g fill="#104665" fill-opacity="1"><g transform="translate(27.379816, 56.756618)"><g><path d="M 0.71875 -7.765625 L 3.125 -7.953125 L 3.25 -6.578125 C 3.445312 -7.109375 3.753906 -7.488281 4.171875 -7.71875 C 4.585938 -7.957031 5.109375 -8.078125 5.734375 -8.078125 C 6.640625 -8.078125 7.296875 -7.835938 7.703125 -7.359375 C 8.117188 -6.878906 8.328125 -6.160156 8.328125 -5.203125 L 8.328125 -1.78125 C 8.328125 -1.125 8.488281 -0.59375 8.8125 -0.1875 C 8.65625 -0.0507812 8.4375 0.0507812 8.15625 0.125 C 7.882812 0.195312 7.628906 0.234375 7.390625 0.234375 C 6.734375 0.234375 6.226562 0.078125 5.875 -0.234375 C 5.519531 -0.554688 5.34375 -1.035156 5.34375 -1.671875 L 5.34375 -5.1875 C 5.34375 -5.726562 5.300781 -6.148438 5.21875 -6.453125 C 5.132812 -6.765625 4.921875 -6.921875 4.578125 -6.921875 C 4.304688 -6.921875 4.101562 -6.820312 3.96875 -6.625 C 3.84375 -6.425781 3.765625 -6.191406 3.734375 -5.921875 C 3.710938 -5.648438 3.703125 -5.300781 3.703125 -4.875 L 3.703125 0 L 0.71875 0 Z M 0.71875 -7.765625 "/></g></g></g><g fill="#104665" fill-opacity="1"><g transform="translate(36.433112, 56.756618)"><g><path d="M 7.21875 -2.609375 C 7.363281 -2.535156 7.46875 -2.421875 7.53125 -2.265625 C 7.601562 -2.109375 7.640625 -1.9375 7.640625 -1.75 C 7.640625 -1.289062 7.488281 -0.90625 7.1875 -0.59375 C 6.882812 -0.28125 6.492188 -0.0507812 6.015625 0.09375 C 5.546875 0.25 5.054688 0.328125 4.546875 0.328125 C 3.234375 0.328125 2.21875 -0.046875 1.5 -0.796875 C 0.78125 -1.554688 0.421875 -2.609375 0.421875 -3.953125 C 0.421875 -5.304688 0.800781 -6.332031 1.5625 -7.03125 C 2.320312 -7.726562 3.394531 -8.078125 4.78125 -8.078125 C 5.675781 -8.078125 6.429688 -7.894531 7.046875 -7.53125 C 7.671875 -7.164062 7.984375 -6.609375 7.984375 -5.859375 C 7.984375 -4.953125 7.648438 -4.328125 6.984375 -3.984375 C 6.328125 -3.640625 5.421875 -3.46875 4.265625 -3.46875 C 3.929688 -3.46875 3.671875 -3.484375 3.484375 -3.515625 C 3.523438 -2.878906 3.671875 -2.382812 3.921875 -2.03125 C 4.171875 -1.6875 4.582031 -1.515625 5.15625 -1.515625 C 5.582031 -1.515625 5.984375 -1.609375 6.359375 -1.796875 C 6.742188 -1.984375 7.03125 -2.253906 7.21875 -2.609375 Z M 3.46875 -4.203125 C 4.125 -4.203125 4.601562 -4.328125 4.90625 -4.578125 C 5.21875 -4.828125 5.375 -5.253906 5.375 -5.859375 C 5.375 -6.222656 5.3125 -6.53125 5.1875 -6.78125 C 5.0625 -7.03125 4.859375 -7.15625 4.578125 -7.15625 C 3.867188 -7.15625 3.5 -6.171875 3.46875 -4.203125 Z M 3.46875 -4.203125 "/></g></g></g><g fill="#104665" fill-opacity="1"><g transform="translate(44.648138, 56.756618)"><g><path d="M 2.375 -11.421875 C 2.863281 -11.421875 3.253906 -11.3125 3.546875 -11.09375 C 3.835938 -10.882812 3.984375 -10.585938 3.984375 -10.203125 C 3.984375 -9.816406 3.828125 -9.515625 3.515625 -9.296875 C 3.210938 -9.085938 2.8125 -8.984375 2.3125 -8.984375 C 1.820312 -8.984375 1.425781 -9.085938 1.125 -9.296875 C 0.832031 -9.503906 0.6875 -9.796875 0.6875 -10.171875 C 0.6875 -10.566406 0.84375 -10.875 1.15625 -11.09375 C 1.476562 -11.3125 1.882812 -11.421875 2.375 -11.421875 Z M 3.8125 -0.703125 C 3.8125 0.429688 3.628906 1.335938 3.265625 2.015625 C 2.898438 2.703125 2.253906 3.046875 1.328125 3.046875 C 0.941406 3.046875 0.582031 2.988281 0.25 2.875 C -0.0820312 2.757812 -0.304688 2.5625 -0.421875 2.28125 C -0.046875 2.226562 0.226562 2.082031 0.40625 1.84375 C 0.59375 1.601562 0.707031 1.3125 0.75 0.96875 C 0.800781 0.632812 0.828125 0.207031 0.828125 -0.3125 L 0.828125 -7.765625 L 3.8125 -7.765625 Z M 3.8125 -0.703125 "/></g></g></g><g fill="#104665" fill-opacity="1"><g transform="translate(49.266234, 56.756618)"><g/></g></g><g fill="#104665" fill-opacity="1"><g transform="translate(51.933452, 56.756618)"><g><path d="M 8.671875 -4.171875 C 8.671875 -2.648438 8.378906 -1.519531 7.796875 -0.78125 C 7.210938 -0.0390625 6.210938 0.328125 4.796875 0.328125 C 3.378906 0.328125 2.332031 0.0078125 1.65625 -0.625 C 0.976562 -1.257812 0.640625 -2.273438 0.640625 -3.671875 L 0.640625 -10.0625 L 3.90625 -10.0625 L 3.90625 -3.84375 C 3.90625 -3.132812 3.929688 -2.578125 3.984375 -2.171875 C 4.046875 -1.773438 4.160156 -1.46875 4.328125 -1.25 C 4.503906 -1.039062 4.769531 -0.9375 5.125 -0.9375 C 5.46875 -0.9375 5.726562 -1.046875 5.90625 -1.265625 C 6.09375 -1.484375 6.21875 -1.804688 6.28125 -2.234375 C 6.34375 -2.671875 6.375 -3.257812 6.375 -4 L 6.375 -10.0625 L 8.671875 -10.0625 Z M 8.671875 -4.171875 "/></g></g></g><g fill="#104665" fill-opacity="1"><g transform="translate(61.23061, 56.756618)"><g><path d="M 4.515625 -10.359375 C 5.398438 -10.359375 6.1875 -10.207031 6.875 -9.90625 C 7.570312 -9.601562 7.921875 -9.117188 7.921875 -8.453125 C 7.921875 -7.929688 7.742188 -7.539062 7.390625 -7.28125 C 7.035156 -7.019531 6.578125 -6.890625 6.015625 -6.890625 C 5.710938 -6.890625 5.445312 -6.925781 5.21875 -7 C 5.28125 -7.332031 5.3125 -7.660156 5.3125 -7.984375 C 5.3125 -8.816406 4.972656 -9.234375 4.296875 -9.234375 C 3.992188 -9.234375 3.753906 -9.144531 3.578125 -8.96875 C 3.398438 -8.789062 3.3125 -8.546875 3.3125 -8.234375 C 3.3125 -7.867188 3.40625 -7.554688 3.59375 -7.296875 C 3.78125 -7.046875 4.015625 -6.832031 4.296875 -6.65625 C 4.578125 -6.488281 4.960938 -6.285156 5.453125 -6.046875 C 6.046875 -5.753906 6.519531 -5.492188 6.875 -5.265625 C 7.226562 -5.035156 7.53125 -4.726562 7.78125 -4.34375 C 8.03125 -3.957031 8.15625 -3.484375 8.15625 -2.921875 C 8.15625 -1.804688 7.753906 -0.984375 6.953125 -0.453125 C 6.148438 0.0664062 5.113281 0.328125 3.84375 0.328125 C 2.851562 0.328125 2 0.171875 1.28125 -0.140625 C 0.570312 -0.453125 0.21875 -0.976562 0.21875 -1.71875 C 0.21875 -2.25 0.394531 -2.664062 0.75 -2.96875 C 1.113281 -3.28125 1.570312 -3.4375 2.125 -3.4375 C 2.457031 -3.4375 2.71875 -3.410156 2.90625 -3.359375 C 2.84375 -3.046875 2.8125 -2.765625 2.8125 -2.515625 C 2.8125 -1.972656 2.898438 -1.550781 3.078125 -1.25 C 3.265625 -0.945312 3.585938 -0.796875 4.046875 -0.796875 C 4.421875 -0.796875 4.71875 -0.894531 4.9375 -1.09375 C 5.15625 -1.300781 5.265625 -1.585938 5.265625 -1.953125 C 5.265625 -2.316406 5.171875 -2.628906 4.984375 -2.890625 C 4.796875 -3.148438 4.5625 -3.363281 4.28125 -3.53125 C 4 -3.707031 3.613281 -3.910156 3.125 -4.140625 C 2.53125 -4.429688 2.054688 -4.691406 1.703125 -4.921875 C 1.359375 -5.148438 1.0625 -5.457031 0.8125 -5.84375 C 0.5625 -6.226562 0.4375 -6.703125 0.4375 -7.265625 C 0.4375 -7.921875 0.625 -8.476562 1 -8.9375 C 1.382812 -9.40625 1.890625 -9.757812 2.515625 -10 C 3.140625 -10.238281 3.804688 -10.359375 4.515625 -10.359375 Z M 4.515625 -10.359375 "/></g></g></g><g clip-path="url(#16eddf902a)"><g clip-path="url(#25bc9b4cc0)"><path fill="#11a34b" d="M 33.050781 15.320312 L 63.734375 15.320312 L 63.734375 46.097656 L 33.050781 46.097656 Z M 33.050781 15.320312 " fill-opacity="1" fill-rule="nonzero"/></g></g><g clip-path="url(#50c6f095fb)"><g clip-path="url(#2df9e7b097)"><path fill="#104665" d="M 33.050781 15.320312 L 63.734375 15.320312 L 63.734375 46.097656 L 33.050781 46.097656 Z M 33.050781 15.320312 " fill-opacity="1" fill-rule="nonzero"/></g></g><g clip-path="url(#634fc1203b)"><g clip-path="url(#37d2705c1d)"><path fill="#11a34b" d="M 33.050781 15.320312 L 63.734375 15.320312 L 63.734375 46.097656 L 33.050781 46.097656 Z M 33.050781 15.320312 " fill-opacity="1" fill-rule="nonzero"/></g></g></svg>