<svg xmlns="http://www.w3.org/2000/svg" xmlns:xlink="http://www.w3.org/1999/xlink" width="200" zoomAndPan="magnify" viewBox="0 0 150 74.999997" height="100" preserveAspectRatio="xMidYMid meet" version="1.0"><defs><g/><clipPath id="bccbb81abd"><path d="M 4.523438 18.070312 L 48.476562 18.070312 L 48.476562 57 L 4.523438 57 Z M 4.523438 18.070312 " clip-rule="nonzero"/></clipPath><clipPath id="500db66f7f"><path d="M 8.273438 18.070312 L 44.726562 18.070312 C 46.796875 18.070312 48.476562 19.75 48.476562 21.820312 L 48.476562 53.179688 C 48.476562 55.25 46.796875 56.929688 44.726562 56.929688 L 8.273438 56.929688 C 6.199219 56.929688 4.523438 55.25 4.523438 53.179688 L 4.523438 21.820312 C 4.523438 19.75 6.199219 18.070312 8.273438 18.070312 " clip-rule="nonzero"/></clipPath><clipPath id="c664b2daba"><path d="M 14.335938 19.796875 L 38.59375 19.796875 L 38.59375 33.53125 L 14.335938 33.53125 Z M 14.335938 19.796875 " clip-rule="nonzero"/></clipPath><clipPath id="5377c5db74"><path d="M 26.5 19.796875 L 14.441406 31.84375 C 14.441406 31.84375 17.664062 33.425781 18.503906 33.425781 C 20.378906 33.425781 23.160156 32.644531 24.214844 32.519531 C 24.769531 32.453125 25.585938 32.320312 26.5 32.285156 C 27.414062 32.320312 28.230469 32.453125 28.785156 32.519531 C 29.839844 32.644531 32.617188 33.425781 34.492188 33.425781 C 35.335938 33.425781 38.558594 31.84375 38.558594 31.84375 Z M 26.5 19.796875 " clip-rule="nonzero"/></clipPath><clipPath id="0776c2806e"><path d="M 9.242188 31.09375 L 43.800781 31.09375 L 43.800781 54.246094 L 9.242188 54.246094 Z M 9.242188 31.09375 " clip-rule="nonzero"/></clipPath><clipPath id="628bf30fd3"><path d="M 41.519531 34.671875 L 43.691406 31.148438 L 40.441406 33.59375 L 35.9375 36.921875 C 35.804688 37.019531 35.65625 37.101562 35.503906 37.160156 L 31.144531 38.859375 L 32.828125 38.753906 L 31.878906 42.691406 L 28.699219 45.832031 L 30.195312 45.324219 L 29.753906 47.578125 L 26.871094 49.8125 C 26.761719 49.898438 26.628906 49.941406 26.5 49.941406 C 26.367188 49.941406 26.238281 49.898438 26.128906 49.8125 L 23.246094 47.582031 L 22.804688 45.328125 L 24.296875 45.832031 L 21.117188 42.695312 L 20.167969 38.753906 L 21.855469 38.859375 L 17.496094 37.160156 C 17.339844 37.101562 17.195312 37.019531 17.0625 36.921875 L 12.558594 33.59375 L 9.308594 31.148438 L 11.480469 34.675781 L 9.242188 36.914062 L 26.5 54.171875 L 43.757812 36.914062 Z M 41.519531 34.671875 " clip-rule="nonzero"/></clipPath><clipPath id="298c96a64c"><path d="M 28 49.480469 L 32.722656 49.480469 L 32.722656 54.464844 L 28 54.464844 Z M 28 49.480469 " clip-rule="nonzero"/></clipPath><clipPath id="496d848014"><path d="M 32.6875 49.589844 L 28.003906 54.414062 L 31.085938 54.414062 L 32.6875 52.777344 Z M 32.6875 49.589844 " clip-rule="nonzero"/></clipPath><clipPath id="6da08dba12"><path d="M 27 44 L 40 44 L 40 57 L 27 57 Z M 27 44 " clip-rule="nonzero"/></clipPath><clipPath id="087f0d4568"><path d="M 36.921875 44.402344 L 39.304688 46.59375 L 29.542969 57.203125 L 27.164062 55.011719 Z M 36.921875 44.402344 " clip-rule="nonzero"/></clipPath><clipPath id="998c51d503"><path d="M 36.921875 44.402344 L 39.230469 46.527344 L 29.660156 56.933594 L 27.351562 54.808594 Z M 36.921875 44.402344 " clip-rule="nonzero"/></clipPath></defs><g fill="#ffffff" fill-opacity="1"><g transform="translate(51.921871, 43.050169)"><g><path d="M 1.894531 0.0546875 L 2.257812 0 L 2.96875 0.0351562 L 3.367188 -0.0195312 L 3.949219 0.0195312 L 4.460938 -0.199219 L 4.679688 -0.527344 L 4.625 -2.4375 L 4.679688 -3.003906 L 4.660156 -3.386719 L 4.695312 -4.042969 L 4.660156 -4.441406 L 4.660156 -5.152344 L 4.824219 -5.316406 L 5.007812 -5.242188 L 5.296875 -5.007812 L 5.515625 -4.734375 L 6.261719 -3.988281 L 6.5 -3.695312 L 6.992188 -3.222656 L 7.371094 -2.949219 L 7.773438 -2.929688 L 8.136719 -3.203125 L 8.390625 -3.476562 L 8.609375 -3.695312 L 9.121094 -4.296875 L 9.375 -4.476562 L 10.121094 -5.242188 L 10.359375 -5.351562 L 10.503906 -5.078125 L 10.46875 -4.078125 L 10.523438 -3.351562 L 10.484375 -2.640625 L 10.523438 -1.964844 L 10.484375 -1.636719 L 10.523438 -0.820312 L 10.523438 -0.546875 L 10.667969 -0.128906 L 11.050781 -0.0195312 L 13.253906 0.0546875 L 13.636719 -0.144531 L 13.855469 -0.671875 L 13.800781 -1.621094 L 13.835938 -1.984375 L 13.800781 -7.445312 L 13.835938 -7.847656 L 13.816406 -9.648438 L 13.835938 -9.996094 L 13.800781 -10.777344 L 13.816406 -11.085938 L 13.800781 -11.832031 L 13.835938 -12.179688 L 13.617188 -12.5625 L 13.234375 -12.761719 L 12.707031 -12.597656 L 12.324219 -12.359375 L 11.558594 -11.558594 L 11.324219 -11.269531 L 11.105469 -11.070312 L 10.851562 -10.742188 L 9.246094 -9.101562 L 9.011719 -8.792969 L 7.902344 -7.664062 L 7.574219 -7.445312 L 7.191406 -7.589844 L 6.972656 -7.902344 L 6.71875 -8.15625 L 6.390625 -8.574219 L 5.988281 -8.9375 L 4.332031 -10.777344 L 4.078125 -10.996094 L 3.605469 -11.558594 L 3.3125 -11.816406 L 2.839844 -12.304688 L 2.421875 -12.617188 L 1.910156 -12.761719 L 1.511719 -12.578125 L 1.3125 -12.195312 L 1.367188 -11.085938 L 1.3125 -10.375 L 1.347656 -10.050781 L 1.328125 -7.136719 L 1.367188 -6.773438 L 1.3125 -4.933594 L 1.347656 -4.585938 L 1.328125 -0.5625 L 1.527344 -0.183594 Z M 1.894531 0.0546875 "/></g></g></g><g fill="#ffffff" fill-opacity="1"><g transform="translate(67.13554, 43.050169)"><g><path d="M 10.742188 0.0351562 L 11.433594 -0.0195312 L 11.777344 0.0195312 L 12.34375 0 L 12.851562 -0.0898438 L 12.90625 -0.527344 L 12.78125 -0.945312 L 12.507812 -1.621094 L 12.015625 -2.566406 L 11.761719 -3.242188 L 11.394531 -3.894531 L 10.703125 -5.550781 L 10.523438 -5.824219 L 10.339844 -6.171875 L 10.230469 -6.570312 L 10.066406 -6.84375 L 9.957031 -7.136719 L 9.574219 -7.808594 L 9.449219 -8.191406 L 8.246094 -10.722656 L 8.136719 -11.085938 L 7.9375 -11.414062 L 7.828125 -11.742188 L 7.480469 -12.378906 L 7.171875 -12.707031 L 6.570312 -12.890625 L 5.988281 -12.6875 L 5.660156 -12.378906 L 5.496094 -12.070312 L 5.371094 -11.707031 L 5.207031 -11.449219 L 4.476562 -9.777344 L 4.277344 -9.503906 L 4.1875 -9.140625 L 3.988281 -8.792969 L 3.878906 -8.464844 L 2.019531 -4.570312 L 1.910156 -4.167969 L 1.730469 -3.894531 L 1.601562 -3.53125 L 1.273438 -2.949219 L 1 -2.222656 L 0.800781 -1.964844 L 0.710938 -1.636719 L 0.347656 -0.910156 L 0.238281 -0.546875 L 0.328125 -0.0898438 L 0.691406 0.0195312 L 1.402344 -0.0195312 L 1.765625 0.0195312 L 2.785156 -0.0195312 L 3.203125 -0.144531 L 3.550781 -0.472656 L 3.878906 -1.074219 L 4.222656 -1.421875 L 4.605469 -1.621094 L 4.953125 -1.566406 L 5.714844 -1.636719 L 6.042969 -1.582031 L 7.828125 -1.601562 L 8.15625 -1.566406 L 8.554688 -1.621094 L 8.957031 -1.421875 L 9.300781 -1.128906 L 9.464844 -0.78125 L 9.574219 -0.457031 L 9.941406 -0.183594 L 10.359375 0 Z M 6.609375 -4.496094 L 6.246094 -4.570312 L 5.824219 -4.53125 L 5.535156 -4.660156 L 5.515625 -5.007812 L 6.371094 -6.972656 L 6.570312 -7.136719 L 6.828125 -6.992188 L 7.683594 -4.988281 L 7.609375 -4.660156 L 7.335938 -4.515625 Z M 6.609375 -4.496094 "/></g></g></g><g fill="#ffffff" fill-opacity="1"><g transform="translate(80.347408, 43.050169)"><g><path d="M 10.742188 -0.308594 L 11.230469 -0.0195312 L 11.742188 0.0351562 L 12.140625 -0.0898438 L 12.324219 -0.457031 L 12.359375 -7.101562 L 12.304688 -7.410156 L 12.304688 -9.210938 L 12.359375 -9.648438 L 12.304688 -12.179688 L 12.125 -12.542969 L 11.761719 -12.742188 L 9.503906 -12.726562 L 9.15625 -12.523438 L 8.957031 -12.140625 L 8.9375 -11.761719 L 8.992188 -11.46875 L 8.9375 -10.703125 L 8.976562 -10.304688 L 8.9375 -7.046875 L 8.828125 -6.734375 L 8.554688 -6.863281 L 7.261719 -8.15625 L 6.753906 -8.554688 L 3.167969 -12.179688 L 2.894531 -12.398438 L 2.476562 -12.617188 L 1.929688 -12.742188 L 1.511719 -12.5625 L 1.347656 -12.214844 L 1.347656 -6.699219 L 1.328125 -6.390625 L 1.367188 -5.644531 L 1.3125 -5.332031 L 1.347656 -2.347656 L 1.3125 -2.003906 L 1.347656 -0.472656 L 1.511719 -0.128906 L 1.894531 0 L 2.640625 0.0351562 L 3.039062 0 L 3.75 0.0546875 L 4.132812 0.0351562 L 4.496094 -0.144531 L 4.679688 -0.710938 L 4.695312 -5.316406 L 4.734375 -5.679688 L 4.859375 -5.988281 L 5.097656 -5.898438 L 5.332031 -5.589844 L 6.625 -4.351562 L 6.863281 -4.078125 L 7.171875 -3.878906 L 9.996094 -1.074219 L 10.46875 -0.546875 Z M 10.742188 -0.308594 "/></g></g></g><g fill="#ffffff" fill-opacity="1"><g transform="translate(94.068831, 43.050169)"><g><path d="M 6.335938 0.0546875 L 8.9375 0.0195312 L 9.320312 -0.144531 L 9.519531 -0.527344 L 9.519531 -2.367188 L 9.320312 -2.730469 L 8.9375 -2.894531 L 8.519531 -2.859375 L 8.175781 -2.914062 L 7.246094 -2.929688 L 6.644531 -2.859375 L 6.28125 -2.894531 L 5.878906 -2.875 L 5.535156 -2.929688 L 5.132812 -2.894531 L 4.75 -3.078125 L 4.605469 -3.402344 L 4.605469 -4.550781 L 4.769531 -4.933594 L 5.097656 -5.132812 L 5.644531 -5.152344 L 6.226562 -5.097656 L 6.917969 -5.132812 L 7.664062 -5.117188 L 8.027344 -5.152344 L 8.445312 -5.132812 L 8.8125 -5.28125 L 8.9375 -5.644531 L 8.992188 -7.28125 L 8.8125 -7.792969 L 8.390625 -8.027344 L 7.316406 -8.027344 L 6.9375 -7.992188 L 6.171875 -8.046875 L 5.117188 -8.011719 L 4.734375 -8.175781 L 4.585938 -8.738281 L 4.585938 -9.300781 L 4.75 -9.648438 L 5.152344 -9.792969 L 5.496094 -9.777344 L 5.84375 -9.847656 L 8.445312 -9.8125 L 8.792969 -9.832031 L 9.175781 -10.050781 L 9.355469 -10.375 L 9.339844 -10.742188 L 9.355469 -11.105469 L 9.320312 -12.195312 L 9.15625 -12.542969 L 8.792969 -12.6875 L 8.410156 -12.6875 L 8.082031 -12.761719 L 6.609375 -12.742188 L 6.207031 -12.707031 L 5.84375 -12.742188 L 5.535156 -12.726562 L 5.171875 -12.761719 L 3.675781 -12.726562 L 3.3125 -12.78125 L 2.96875 -12.707031 L 2.640625 -12.742188 L 2.277344 -12.707031 L 1.910156 -12.726562 L 1.527344 -12.578125 L 1.328125 -12.195312 L 1.367188 -11.503906 L 1.3125 -10.757812 L 1.367188 -10.359375 L 1.328125 -8.574219 L 1.382812 -8.191406 L 1.347656 -7.847656 L 1.328125 -6.351562 L 1.382812 -6.027344 L 1.367188 -3.078125 L 1.328125 -2.730469 L 1.382812 -2.367188 L 1.328125 -1.109375 L 1.367188 -0.710938 L 1.511719 -0.21875 L 2.058594 0.0195312 L 3.367188 0.0351562 L 3.769531 0 L 4.097656 0.0195312 L 4.84375 -0.0351562 L 5.1875 0.0351562 L 5.605469 0.0546875 L 5.972656 0.0195312 Z M 6.335938 0.0546875 "/></g></g></g><g fill="#ffffff" fill-opacity="1"><g transform="translate(104.496384, 43.050169)"><g><path d="M 4.625 0.199219 L 5.1875 0.199219 L 5.699219 0.144531 L 6.097656 0.144531 L 6.828125 0.0351562 L 7.15625 -0.164062 L 8.175781 -0.636719 L 8.429688 -0.855469 L 8.738281 -1.074219 L 9.464844 -1.875 L 9.777344 -2.492188 L 10.011719 -3.277344 L 10.105469 -4.167969 L 10.066406 -8.992188 L 10.121094 -9.320312 L 10.085938 -12.214844 L 9.902344 -12.578125 L 9.339844 -12.726562 L 8.429688 -12.742188 L 8.046875 -12.707031 L 6.589844 -12.761719 L 6.191406 -12.707031 L 5.660156 -12.796875 L 5.117188 -12.707031 L 4.734375 -12.707031 L 4.351562 -12.542969 L 4.152344 -12.234375 L 4.1875 -11.851562 L 4.167969 -11.503906 L 4.1875 -11.070312 L 4.152344 -10.777344 L 4.1875 -10.414062 L 4.316406 -10.03125 L 4.734375 -9.847656 L 5.078125 -9.792969 L 5.605469 -9.792969 L 6.171875 -9.832031 L 6.554688 -9.628906 L 6.753906 -9.285156 L 6.679688 -3.695312 L 6.535156 -3.332031 L 6.335938 -3.078125 L 5.699219 -2.765625 L 5.171875 -2.710938 L 4.660156 -2.820312 L 4.296875 -2.949219 L 3.96875 -3.132812 L 3.714844 -3.367188 L 3.585938 -3.675781 L 3.476562 -4.242188 L 3.457031 -5.0625 L 3.496094 -5.386719 L 3.296875 -5.714844 L 2.894531 -5.863281 L 1.746094 -5.898438 L 1.382812 -5.863281 L 0.984375 -5.863281 L 0.582031 -5.699219 L 0.402344 -5.351562 L 0.382812 -4.714844 L 0.4375 -4.1875 L 0.417969 -3.640625 L 0.457031 -3.277344 L 0.5625 -2.914062 L 0.820312 -2.257812 L 1.402344 -1.3125 L 1.691406 -1.039062 L 2.53125 -0.402344 L 3.203125 -0.144531 L 3.53125 -0.0742188 L 3.933594 0.0898438 L 4.261719 0.0898438 Z M 4.625 0.199219 "/></g></g></g><g fill="#ffffff" fill-opacity="1"><g transform="translate(115.852038, 43.050169)"><g><path d="M 1.527344 -10.429688 L 1.910156 -10.375 L 2.074219 -10.394531 L 2.546875 -10.429688 L 2.929688 -10.558594 L 3.113281 -10.722656 L 3.222656 -10.90625 L 4.40625 -12.234375 L 4.550781 -12.34375 L 4.679688 -12.6875 L 4.460938 -12.90625 L 3.605469 -13.199219 L 3.402344 -13.214844 L 2.128906 -13.691406 L 1.839844 -13.5625 L 1.109375 -11.925781 L 0.984375 -11.742188 L 0.929688 -11.523438 L 0.800781 -11.304688 L 0.746094 -11.085938 L 0.636719 -10.886719 L 0.527344 -10.523438 L 0.984375 -10.394531 L 1.203125 -10.394531 Z M 1.527344 -10.429688 "/></g></g></g><g fill="#ffffff" fill-opacity="1"><g transform="translate(121.093117, 43.050169)"><g><path d="M 6.261719 0.238281 L 6.808594 0.183594 L 7.15625 0.199219 L 8.574219 -0.164062 L 9.230469 -0.507812 L 9.832031 -0.910156 L 10.339844 -1.421875 L 10.757812 -2.058594 L 10.867188 -2.421875 L 11.050781 -2.730469 L 11.214844 -3.496094 L 11.304688 -4.367188 L 11.304688 -9.285156 L 11.269531 -9.628906 L 11.304688 -10.03125 L 11.269531 -10.320312 L 11.269531 -11.832031 L 11.324219 -12.195312 L 11.085938 -12.578125 L 10.6875 -12.707031 L 9.539062 -12.671875 L 8.773438 -12.726562 L 8.390625 -12.542969 L 8.191406 -12.140625 L 8.226562 -4.96875 L 8.101562 -3.839844 L 7.992188 -3.566406 L 7.792969 -3.203125 L 7.480469 -2.984375 L 6.84375 -2.75 L 5.753906 -2.75 L 5.332031 -2.839844 L 5.023438 -3.023438 L 4.734375 -3.242188 L 4.515625 -3.53125 L 4.40625 -3.878906 L 4.296875 -4.933594 L 4.351562 -10.796875 L 4.316406 -11.070312 L 4.351562 -11.652344 L 4.316406 -12.179688 L 4.097656 -12.578125 L 3.714844 -12.742188 L 3.367188 -12.742188 L 3.003906 -12.6875 L 2.222656 -12.761719 L 1.839844 -12.707031 L 1.457031 -12.5625 L 1.21875 -12.214844 L 1.257812 -11.851562 L 1.257812 -11.414062 L 1.21875 -11.121094 L 1.273438 -8.574219 L 1.21875 -8.210938 L 1.257812 -7.863281 L 1.203125 -4.933594 L 1.3125 -3.476562 L 1.492188 -2.730469 L 1.785156 -2.113281 L 2.203125 -1.457031 L 2.421875 -1.203125 L 2.695312 -0.964844 L 3.277344 -0.582031 L 3.640625 -0.417969 L 3.914062 -0.253906 L 4.605469 0.0546875 L 5.316406 0.199219 L 5.679688 0.199219 Z M 6.261719 0.238281 "/></g></g></g><g fill="#ffffff" fill-opacity="1"><g transform="translate(133.649856, 43.050169)"><g><path d="M 4.898438 0.164062 L 6.335938 0.199219 L 6.699219 0.164062 L 7.0625 0.0742188 L 7.425781 0.0195312 L 7.792969 -0.128906 L 8.121094 -0.164062 L 8.464844 -0.328125 L 9.703125 -1.074219 L 10.230469 -1.621094 L 10.414062 -1.875 L 10.613281 -2.277344 L 10.722656 -2.601562 L 10.832031 -2.914062 L 10.941406 -3.824219 L 10.90625 -4.40625 L 10.632812 -5.460938 L 10.429688 -5.753906 L 9.957031 -6.296875 L 9.628906 -6.589844 L 9.339844 -6.734375 L 9.011719 -6.9375 L 7.589844 -7.371094 L 7.226562 -7.425781 L 6.863281 -7.445312 L 6.480469 -7.519531 L 5.953125 -7.519531 L 4.988281 -7.71875 L 4.316406 -8.046875 L 4.042969 -8.300781 L 3.96875 -8.847656 L 4.058594 -9.339844 L 4.277344 -9.574219 L 4.550781 -9.777344 L 4.84375 -9.941406 L 5.171875 -10.011719 L 5.753906 -10.03125 L 6.335938 -9.957031 L 6.664062 -9.867188 L 6.992188 -9.648438 L 7.300781 -9.394531 L 7.574219 -9.03125 L 7.972656 -8.792969 L 8.828125 -8.867188 L 9.320312 -8.828125 L 9.683594 -8.828125 L 10.011719 -8.792969 L 10.359375 -9.046875 L 10.503906 -9.355469 L 10.429688 -9.703125 L 10.394531 -10.050781 L 9.886719 -10.996094 L 9.484375 -11.542969 L 8.28125 -12.378906 L 7.261719 -12.726562 L 6.554688 -12.871094 L 5.152344 -12.90625 L 4.75 -12.796875 L 4.386719 -12.78125 L 4.058594 -12.726562 L 3.367188 -12.507812 L 2.75 -12.140625 L 1.875 -11.542969 L 1.238281 -10.6875 L 0.910156 -9.683594 L 0.855469 -8.792969 L 0.875 -8.226562 L 1 -7.5 L 1.292969 -6.863281 L 1.964844 -6.027344 L 3.203125 -5.351562 L 3.859375 -5.132812 L 6.71875 -4.804688 L 7.371094 -4.496094 L 7.609375 -4.277344 L 7.71875 -3.824219 L 7.574219 -3.367188 L 7.335938 -3.09375 L 6.71875 -2.820312 L 6.152344 -2.785156 L 5.824219 -2.730469 L 4.898438 -2.820312 L 4.585938 -2.984375 L 4.277344 -3.1875 L 3.675781 -3.839844 L 3.3125 -3.988281 L 2.984375 -3.949219 L 2.640625 -4.003906 L 1.238281 -3.933594 L 0.910156 -3.785156 L 0.765625 -3.402344 L 0.820312 -3.039062 L 0.890625 -2.675781 L 1 -2.347656 L 1.347656 -1.675781 L 1.601562 -1.4375 L 1.839844 -1.164062 L 2.476562 -0.765625 L 2.730469 -0.492188 L 3.078125 -0.328125 L 3.441406 -0.21875 L 4.152344 0.0351562 Z M 4.898438 0.164062 "/></g></g></g><g clip-path="url(#bccbb81abd)"><g clip-path="url(#500db66f7f)"><path fill="#ffffff" d="M 4.523438 18.070312 L 48.476562 18.070312 L 48.476562 57.21875 L 4.523438 57.21875 Z M 4.523438 18.070312 " fill-opacity="1" fill-rule="nonzero"/></g></g><g clip-path="url(#c664b2daba)"><g clip-path="url(#5377c5db74)"><path fill="#11a34b" d="M 8.6875 19.242188 L 44.355469 19.242188 L 44.355469 55.019531 L 8.6875 55.019531 Z M 8.6875 19.242188 " fill-opacity="1" fill-rule="nonzero"/></g></g><g clip-path="url(#0776c2806e)"><g clip-path="url(#628bf30fd3)"><path fill="#104665" d="M 8.6875 19.242188 L 44.355469 19.242188 L 44.355469 55.019531 L 8.6875 55.019531 Z M 8.6875 19.242188 " fill-opacity="1" fill-rule="nonzero"/></g></g><g clip-path="url(#298c96a64c)"><g clip-path="url(#496d848014)"><path fill="#11a34b" d="M 8.6875 19.242188 L 44.355469 19.242188 L 44.355469 55.019531 L 8.6875 55.019531 Z M 8.6875 19.242188 " fill-opacity="1" fill-rule="nonzero"/></g></g><g clip-path="url(#6da08dba12)"><g clip-path="url(#087f0d4568)"><g clip-path="url(#998c51d503)"><path fill="#ffffff" d="M 36.921875 44.402344 L 39.304688 46.59375 L 29.742188 56.988281 L 27.363281 54.796875 Z M 36.921875 44.402344 " fill-opacity="1" fill-rule="nonzero"/></g></g></g></svg>